<svg xmlns="http://www.w3.org/2000/svg" xmlns:xlink="http://www.w3.org/1999/xlink" width="200" zoomAndPan="magnify" viewBox="0 0 150 149.999998" height="200" preserveAspectRatio="xMidYMid meet" version="1.0"><defs><g/></defs><g fill="#000000" fill-opacity="1"><g transform="translate(3.650392, 84.225019)"><g><path d="M 7.484375 -2.546875 C 7.910156 -2.546875 8.328125 -2.609375 8.734375 -2.734375 C 9.140625 -2.867188 9.4375 -3 9.625 -3.125 L 9.921875 -3.3125 L 11.109375 -0.921875 C 11.078125 -0.890625 11.023438 -0.847656 10.953125 -0.796875 C 10.878906 -0.742188 10.710938 -0.648438 10.453125 -0.515625 C 10.203125 -0.378906 9.929688 -0.257812 9.640625 -0.15625 C 9.347656 -0.0625 8.96875 0.0195312 8.5 0.09375 C 8.03125 0.175781 7.546875 0.21875 7.046875 0.21875 C 5.898438 0.21875 4.8125 -0.0625 3.78125 -0.625 C 2.75 -1.1875 1.914062 -1.960938 1.28125 -2.953125 C 0.65625 -3.941406 0.34375 -5.015625 0.34375 -6.171875 C 0.34375 -7.035156 0.523438 -7.867188 0.890625 -8.671875 C 1.265625 -9.472656 1.757812 -10.15625 2.375 -10.71875 C 2.988281 -11.289062 3.707031 -11.742188 4.53125 -12.078125 C 5.351562 -12.421875 6.191406 -12.59375 7.046875 -12.59375 C 7.847656 -12.59375 8.585938 -12.5 9.265625 -12.3125 C 9.941406 -12.125 10.414062 -11.9375 10.6875 -11.75 L 11.109375 -11.453125 L 9.921875 -9.0625 C 9.847656 -9.125 9.738281 -9.195312 9.59375 -9.28125 C 9.457031 -9.363281 9.175781 -9.472656 8.75 -9.609375 C 8.332031 -9.753906 7.910156 -9.828125 7.484375 -9.828125 C 6.804688 -9.828125 6.195312 -9.71875 5.65625 -9.5 C 5.113281 -9.28125 4.6875 -8.988281 4.375 -8.625 C 4.0625 -8.257812 3.820312 -7.867188 3.65625 -7.453125 C 3.488281 -7.046875 3.40625 -6.625 3.40625 -6.1875 C 3.40625 -5.25 3.753906 -4.40625 4.453125 -3.65625 C 5.160156 -2.914062 6.171875 -2.546875 7.484375 -2.546875 Z M 7.484375 -2.546875 "/></g></g></g><g fill="#000000" fill-opacity="1"><g transform="translate(14.936623, 84.225019)"><g><path d="M 0.90625 0 L 0.90625 -12.90625 L 3.5625 -12.90625 L 3.5625 -6.890625 L 3.578125 -6.890625 C 4.273438 -7.578125 5.015625 -7.921875 5.796875 -7.921875 C 6.171875 -7.921875 6.546875 -7.867188 6.921875 -7.765625 C 7.296875 -7.671875 7.65625 -7.515625 8 -7.296875 C 8.34375 -7.085938 8.625 -6.789062 8.84375 -6.40625 C 9.0625 -6.019531 9.171875 -5.570312 9.171875 -5.0625 L 9.171875 0 L 6.515625 0 L 6.515625 -4.34375 C 6.515625 -4.75 6.382812 -5.097656 6.125 -5.390625 C 5.875 -5.691406 5.539062 -5.84375 5.125 -5.84375 C 4.726562 -5.84375 4.367188 -5.6875 4.046875 -5.375 C 3.722656 -5.070312 3.5625 -4.726562 3.5625 -4.34375 L 3.5625 0 Z M 0.90625 0 "/></g></g></g><g fill="#000000" fill-opacity="1"><g transform="translate(24.843933, 84.225019)"><g><path d="M 1.421875 -0.953125 C 0.703125 -1.734375 0.34375 -2.691406 0.34375 -3.828125 C 0.34375 -4.972656 0.703125 -5.941406 1.421875 -6.734375 C 2.140625 -7.523438 3.054688 -7.921875 4.171875 -7.921875 C 5.191406 -7.921875 6.03125 -7.597656 6.6875 -6.953125 L 6.6875 -7.6875 L 9.34375 -7.6875 L 9.34375 0 L 6.71875 0 L 6.71875 -0.875 L 6.6875 -0.875 C 6.03125 -0.144531 5.191406 0.21875 4.171875 0.21875 C 3.054688 0.21875 2.140625 -0.171875 1.421875 -0.953125 Z M 3.6875 -5.140625 C 3.34375 -4.804688 3.171875 -4.375 3.171875 -3.84375 C 3.171875 -3.3125 3.332031 -2.878906 3.65625 -2.546875 C 3.988281 -2.210938 4.425781 -2.046875 4.96875 -2.046875 C 5.488281 -2.046875 5.914062 -2.210938 6.25 -2.546875 C 6.582031 -2.890625 6.75 -3.320312 6.75 -3.84375 C 6.75 -4.375 6.578125 -4.804688 6.234375 -5.140625 C 5.890625 -5.484375 5.46875 -5.65625 4.96875 -5.65625 C 4.457031 -5.65625 4.03125 -5.484375 3.6875 -5.140625 Z M 3.6875 -5.140625 "/></g></g></g><g fill="#000000" fill-opacity="1"><g transform="translate(35.080981, 84.225019)"><g><path d="M 1.34375 -7.6875 L 1.34375 -10.5625 L 4 -10.5625 L 4 -7.6875 L 5.625 -7.6875 L 5.625 -5.671875 L 4 -5.671875 L 4 -3.21875 C 4 -2.507812 4.203125 -2.15625 4.609375 -2.15625 C 4.703125 -2.15625 4.800781 -2.175781 4.90625 -2.21875 C 5.019531 -2.257812 5.109375 -2.300781 5.171875 -2.34375 L 5.265625 -2.40625 L 5.921875 -0.25 C 5.347656 0.0625 4.695312 0.21875 3.96875 0.21875 C 3.46875 0.21875 3.035156 0.132812 2.671875 -0.03125 C 2.316406 -0.207031 2.046875 -0.441406 1.859375 -0.734375 C 1.679688 -1.035156 1.550781 -1.347656 1.46875 -1.671875 C 1.382812 -1.992188 1.34375 -2.34375 1.34375 -2.71875 L 1.34375 -5.671875 L 0.234375 -5.671875 L 0.234375 -7.6875 Z M 1.34375 -7.6875 "/></g></g></g><g fill="#000000" fill-opacity="1"><g transform="translate(45.093211, 84.225019)"><g><path d="M 10.390625 0 L 8.421875 -6.9375 L 6.4375 0 L 3.296875 0 L -0.21875 -12.375 L 2.90625 -12.375 L 5.03125 -3.890625 L 5.09375 -3.890625 L 7.34375 -12.375 L 9.484375 -12.375 L 11.734375 -3.890625 L 11.8125 -3.890625 L 13.921875 -12.375 L 17.046875 -12.375 L 13.515625 0 Z M 10.390625 0 "/></g></g></g><g fill="#000000" fill-opacity="1"><g transform="translate(61.895162, 84.225019)"><g><path d="M 1.15625 -11.984375 C 1.46875 -12.296875 1.835938 -12.453125 2.265625 -12.453125 C 2.691406 -12.453125 3.0625 -12.296875 3.375 -11.984375 C 3.6875 -11.671875 3.84375 -11.300781 3.84375 -10.875 C 3.84375 -10.445312 3.6875 -10.078125 3.375 -9.765625 C 3.0625 -9.453125 2.691406 -9.296875 2.265625 -9.296875 C 1.835938 -9.296875 1.46875 -9.453125 1.15625 -9.765625 C 0.84375 -10.078125 0.6875 -10.445312 0.6875 -10.875 C 0.6875 -11.300781 0.84375 -11.671875 1.15625 -11.984375 Z M 0.90625 -7.6875 L 0.90625 0 L 3.5625 0 L 3.5625 -7.6875 Z M 0.90625 -7.6875 "/></g></g></g><g fill="#000000" fill-opacity="1"><g transform="translate(66.421643, 84.225019)"><g><path d="M 1.34375 -7.6875 L 1.34375 -10.5625 L 4 -10.5625 L 4 -7.6875 L 5.625 -7.6875 L 5.625 -5.671875 L 4 -5.671875 L 4 -3.21875 C 4 -2.507812 4.203125 -2.15625 4.609375 -2.15625 C 4.703125 -2.15625 4.800781 -2.175781 4.90625 -2.21875 C 5.019531 -2.257812 5.109375 -2.300781 5.171875 -2.34375 L 5.265625 -2.40625 L 5.921875 -0.25 C 5.347656 0.0625 4.695312 0.21875 3.96875 0.21875 C 3.46875 0.21875 3.035156 0.132812 2.671875 -0.03125 C 2.316406 -0.207031 2.046875 -0.441406 1.859375 -0.734375 C 1.679688 -1.035156 1.550781 -1.347656 1.46875 -1.671875 C 1.382812 -1.992188 1.34375 -2.34375 1.34375 -2.71875 L 1.34375 -5.671875 L 0.234375 -5.671875 L 0.234375 -7.6875 Z M 1.34375 -7.6875 "/></g></g></g><g fill="#000000" fill-opacity="1"><g transform="translate(72.342049, 84.225019)"><g><path d="M 0.90625 0 L 0.90625 -12.90625 L 3.5625 -12.90625 L 3.5625 -6.890625 L 3.578125 -6.890625 C 4.273438 -7.578125 5.015625 -7.921875 5.796875 -7.921875 C 6.171875 -7.921875 6.546875 -7.867188 6.921875 -7.765625 C 7.296875 -7.671875 7.65625 -7.515625 8 -7.296875 C 8.34375 -7.085938 8.625 -6.789062 8.84375 -6.40625 C 9.0625 -6.019531 9.171875 -5.570312 9.171875 -5.0625 L 9.171875 0 L 6.515625 0 L 6.515625 -4.34375 C 6.515625 -4.75 6.382812 -5.097656 6.125 -5.390625 C 5.875 -5.691406 5.539062 -5.84375 5.125 -5.84375 C 4.726562 -5.84375 4.367188 -5.6875 4.046875 -5.375 C 3.722656 -5.070312 3.5625 -4.726562 3.5625 -4.34375 L 3.5625 0 Z M 0.90625 0 "/></g></g></g><g fill="#000000" fill-opacity="1"><g transform="translate(82.249359, 84.225019)"><g/></g></g><g fill="#000000" fill-opacity="1"><g transform="translate(86.341183, 84.225019)"><g><path d="M 7.1875 -12.375 L 12.1875 0 L 9.15625 0 L 8.234375 -2.46875 L 3.53125 -2.46875 L 2.609375 0 L -0.421875 0 L 4.578125 -12.375 Z M 7.28125 -4.953125 L 5.890625 -8.546875 L 5.859375 -8.546875 L 4.484375 -4.953125 Z M 7.28125 -4.953125 "/></g></g></g><g fill="#000000" fill-opacity="1"><g transform="translate(98.092055, 84.225019)"><g><path d="M 0.90625 0 L 0.90625 -7.6875 L 3.5625 -7.6875 L 3.5625 -6.890625 L 3.578125 -6.890625 C 4.273438 -7.578125 5.015625 -7.921875 5.796875 -7.921875 C 6.171875 -7.921875 6.546875 -7.867188 6.921875 -7.765625 C 7.296875 -7.671875 7.65625 -7.515625 8 -7.296875 C 8.34375 -7.085938 8.625 -6.789062 8.84375 -6.40625 C 9.0625 -6.019531 9.171875 -5.570312 9.171875 -5.0625 L 9.171875 0 L 6.515625 0 L 6.515625 -4.34375 C 6.515625 -4.75 6.382812 -5.097656 6.125 -5.390625 C 5.875 -5.691406 5.539062 -5.84375 5.125 -5.84375 C 4.726562 -5.84375 4.367188 -5.6875 4.046875 -5.375 C 3.722656 -5.070312 3.5625 -4.726562 3.5625 -4.34375 L 3.5625 0 Z M 0.90625 0 "/></g></g></g><g fill="#000000" fill-opacity="1"><g transform="translate(107.999365, 84.225019)"><g><path d="M 6.734375 -7.6875 L 9.796875 -7.6875 L 3.75 3.90625 L 0.6875 3.90625 L 3.34375 -1.203125 L -0.296875 -7.6875 L 2.765625 -7.6875 L 4.90625 -3.75 Z M 6.734375 -7.6875 "/></g></g></g><g fill="#000000" fill-opacity="1"><g transform="translate(117.486998, 84.225019)"><g><path d="M 1.625 -0.921875 C 0.769531 -1.679688 0.34375 -2.65625 0.34375 -3.84375 C 0.34375 -5.03125 0.785156 -6.003906 1.671875 -6.765625 C 2.566406 -7.535156 3.671875 -7.921875 4.984375 -7.921875 C 6.273438 -7.921875 7.359375 -7.535156 8.234375 -6.765625 C 9.117188 -5.992188 9.5625 -5.015625 9.5625 -3.828125 C 9.5625 -2.648438 9.128906 -1.679688 8.265625 -0.921875 C 7.398438 -0.160156 6.304688 0.21875 4.984375 0.21875 C 3.597656 0.21875 2.476562 -0.160156 1.625 -0.921875 Z M 3.6875 -5.140625 C 3.34375 -4.804688 3.171875 -4.375 3.171875 -3.84375 C 3.171875 -3.3125 3.332031 -2.878906 3.65625 -2.546875 C 3.988281 -2.210938 4.425781 -2.046875 4.96875 -2.046875 C 5.488281 -2.046875 5.914062 -2.210938 6.25 -2.546875 C 6.582031 -2.890625 6.75 -3.320312 6.75 -3.84375 C 6.75 -4.375 6.578125 -4.804688 6.234375 -5.140625 C 5.890625 -5.484375 5.46875 -5.65625 4.96875 -5.65625 C 4.457031 -5.65625 4.03125 -5.484375 3.6875 -5.140625 Z M 3.6875 -5.140625 "/></g></g></g><g fill="#000000" fill-opacity="1"><g transform="translate(127.394307, 84.225019)"><g><path d="M 0.90625 0 L 0.90625 -7.6875 L 3.5625 -7.6875 L 3.5625 -6.890625 L 3.578125 -6.890625 C 4.273438 -7.578125 5.015625 -7.921875 5.796875 -7.921875 C 6.171875 -7.921875 6.546875 -7.867188 6.921875 -7.765625 C 7.296875 -7.671875 7.65625 -7.515625 8 -7.296875 C 8.34375 -7.085938 8.625 -6.789062 8.84375 -6.40625 C 9.0625 -6.019531 9.171875 -5.570312 9.171875 -5.0625 L 9.171875 0 L 6.515625 0 L 6.515625 -4.34375 C 6.515625 -4.75 6.382812 -5.097656 6.125 -5.390625 C 5.875 -5.691406 5.539062 -5.84375 5.125 -5.84375 C 4.726562 -5.84375 4.367188 -5.6875 4.046875 -5.375 C 3.722656 -5.070312 3.5625 -4.726562 3.5625 -4.34375 L 3.5625 0 Z M 0.90625 0 "/></g></g></g><g fill="#000000" fill-opacity="1"><g transform="translate(137.301617, 84.225019)"><g><path d="M 8.6875 -3.484375 L 3.109375 -3.484375 C 3.109375 -2.941406 3.28125 -2.539062 3.625 -2.28125 C 3.976562 -2.019531 4.359375 -1.890625 4.765625 -1.890625 C 5.203125 -1.890625 5.546875 -1.945312 5.796875 -2.0625 C 6.046875 -2.175781 6.328125 -2.40625 6.640625 -2.75 L 8.5625 -1.78125 C 7.757812 -0.445312 6.429688 0.21875 4.578125 0.21875 C 3.410156 0.21875 2.410156 -0.175781 1.578125 -0.96875 C 0.753906 -1.757812 0.34375 -2.710938 0.34375 -3.828125 C 0.34375 -4.953125 0.753906 -5.914062 1.578125 -6.71875 C 2.410156 -7.519531 3.410156 -7.921875 4.578125 -7.921875 C 5.796875 -7.921875 6.785156 -7.566406 7.546875 -6.859375 C 8.316406 -6.160156 8.703125 -5.15625 8.703125 -3.84375 C 8.703125 -3.65625 8.695312 -3.535156 8.6875 -3.484375 Z M 3.1875 -4.953125 L 6.109375 -4.953125 C 6.046875 -5.347656 5.882812 -5.648438 5.625 -5.859375 C 5.375 -6.078125 5.050781 -6.1875 4.65625 -6.1875 C 4.207031 -6.1875 3.851562 -6.070312 3.59375 -5.84375 C 3.332031 -5.613281 3.195312 -5.316406 3.1875 -4.953125 Z M 3.1875 -4.953125 "/></g></g></g></svg>